<?xml version="1.0" encoding="UTF-8"?>
<svg id="Capa_1" data-name="Capa 1" xmlns="http://www.w3.org/2000/svg" viewBox="0 0 32.2 39.71">
  <defs>
    <style>
      .cls-1 {
        fill: #706f6f;
        font-family: Gotham-Bold, Gotham;
        font-size: 7.6px;
        font-weight: 700;
      }

      .cls-2 {
        fill: #f9e4b4;
      }

      .cls-3 {
        fill: #ffd866;
      }
    </style>
  </defs>
  <g>
    <path class="cls-2" d="M14.76,14.53s-1.7,1.74-1.89,4.85h6.95s.57-1.38,1.54-1.56l-6.6-3.29Z"/>
    <g>
      <path class="cls-3" d="M13.77,28.4L9.65,12.34H3.64L.7,28.21s5.54,3.31,13.07,.18Z"/>
      <circle class="cls-3" cx="6.82" cy="5.19" r="5.17"/>
    </g>
    <path class="cls-3" d="M25.71,9.89h6.49s.05-7.85-7.47-9.71c0,0-4.91-1.15-9.16,2.34,0,0-4.25,3.33-2.07,9.92,0,0,1.69,4.53,6.93,5.29,0,0,4.64,.11,4.85,2.34,0,0,.33,2.02-1.25,2.78l.71,3.27s-1.8,1.53-4.25,0l.76-3.11s-2.04-.82-1.53-3.11h-6.84s-.41,7.96,7.98,9.71c0,0,7.03,1.47,10.47-5.23,0,0,2.78-6.11-2.18-10.47,0,0-2.4-2.34-7.47-2.24,0,0-3.76-.44-1.91-4.36,0,0,.75-1.61,3.45-1.34s2.49,3.91,2.49,3.91Z"/>
  </g>
  <text class="cls-1" transform="translate(0 37.45)"><tspan x="0" y="0">InnSight</tspan></text>
</svg>